<?xml version="1.0" encoding="utf-8"?>
<!-- Generator: Adobe Illustrator 16.0.0, SVG Export Plug-In . SVG Version: 6.00 Build 0)  -->
<!DOCTYPE svg PUBLIC "-//W3C//DTD SVG 1.1//EN" "http://www.w3.org/Graphics/SVG/1.1/DTD/svg11.dtd">
<svg version="1.1" id="Layer_1" xmlns="http://www.w3.org/2000/svg" xmlns:xlink="http://www.w3.org/1999/xlink" x="0px" y="0px"
	 width="32px" height="32px" viewBox="0 0 32 32" enable-background="new 0 0 32 32" xml:space="preserve">
<g>
	<path d="M16.425,18.415c-0.897-0.634-2.609-2.176-2.609-3.083c0-1.062,0.303-1.586,1.902-2.835c1.638-1.281,2.8-3.38,2.8-5.476
		C18.518,4.529,17.404,3,15.321,1h3.144l2.219-1c0,0-7.435,0-9.914,0C6.325,0,2.144,3.362,2.144,7.261
		c0,3.986,3.029,7.201,7.551,7.201c0.314,0,0.619-0.008,0.919-0.028c-0.294,0.56-0.503,1.192-0.503,1.849
		c0,1.107,0.596,2.006,1.348,2.74c-0.567,0-1.118,0.016-1.717,0.016C4.235,19.038,0,22.543,0,26.18C0,29.758,4.645,32,10.148,32
		c6.276,0,9.741-3.563,9.741-7.143C19.891,21.986,19.042,20.27,16.425,18.415z M11.129,13.448c-2.555-0.076-4.981-2.857-5.422-6.209
		c-0.44-3.355,1.272-5.922,3.824-5.846c2.554,0.078,4.981,2.768,5.423,6.122C15.395,10.87,13.681,13.524,11.129,13.448z
		 M10.128,30.415c-3.805,0-6.553-2.407-6.553-5.301c0-2.834,3.408-5.195,7.214-5.154c0.888,0.01,1.715,0.151,2.465,0.396
		c2.066,1.438,3.548,2.25,3.969,3.886c0.075,0.332,0.12,0.675,0.12,1.022C17.343,28.155,15.478,30.415,10.128,30.415z"/>
	<polygon points="27,14 27,9 25,9 25,14 20,14 20,16 25,16 25,21 27,21 27,16 32,16 32,14 	"/>
</g>
</svg>
